<svg width="44" height="53" viewBox="0 0 44 53" fill="none" xmlns="http://www.w3.org/2000/svg">
<path d="M30.4624 18.9726H24.7542L22.9907 13.7154C22.8512 13.2999 22.4514 13.0186 22.0002 13.0186C21.5491 13.0186 21.1492 13.2999 21.0098 13.7154L19.2462 18.9726H13.5381C13.087 18.9726 12.6871 19.2539 12.5476 19.6694C12.4082 20.0849 12.561 20.5401 12.9261 20.797L17.5436 24.0453L15.78 29.3025C15.6406 29.718 15.7934 30.1732 16.1584 30.43C16.5235 30.6867 17.0177 30.6868 17.3826 30.4299L22.0002 27.1807L26.6179 30.4299C26.8003 30.5583 27.0152 30.6225 27.23 30.6225C27.934 30.6225 28.4397 29.9561 28.2204 29.3025L26.4569 24.0453L31.0744 20.797C31.4395 20.5401 31.5923 20.0849 31.4528 19.6694C31.3134 19.2539 30.9135 18.9726 30.4624 18.9726ZM24.6206 22.8441C24.2555 23.1009 24.1028 23.5562 24.2422 23.9717L25.2493 26.9739L22.6124 25.1184C22.2475 24.8615 21.753 24.8615 21.3881 25.1184L18.7512 26.9738L19.7583 23.9716C19.8977 23.5561 19.7449 23.1008 19.3798 22.844L16.7436 20.9894H20.003C20.4541 20.9894 20.854 20.7081 20.9934 20.2926L22.0002 17.2911L23.0071 20.2928C23.1466 20.7083 23.5465 20.9896 23.9976 20.9896H27.257L24.6206 22.8441Z" fill="#FF1B1E" stroke="#FF1B1E" stroke-width="0.4"/>
<path d="M41.5622 16.745C41.1458 15.2364 41.6506 13.1298 40.6222 11.4071C39.5884 9.67901 37.4228 9.02502 36.318 7.95533C35.2176 6.88938 34.5337 4.7856 32.7532 3.78681C30.9764 2.79125 28.7985 3.27975 27.242 2.87677C25.7618 2.49274 24.1001 1 22.0001 1C19.9016 1 18.23 2.49486 16.7586 2.87667C15.2008 3.27995 13.0255 2.79105 11.2466 3.78701C10.1328 4.41186 9.44255 5.47721 8.83345 6.41701C7.85446 7.9282 7.65722 8.12032 6.09371 9.0702C5.12326 9.65995 4.02316 10.3285 3.37772 11.4075C2.34978 13.128 2.85401 15.2379 2.43799 16.7446C2.04143 18.178 0.5 19.7872 0.5 21.8209C0.5 23.8531 2.04383 25.472 2.43788 26.8971C2.85308 28.3994 2.35093 30.5112 3.37793 32.2347C4.44116 34.0121 6.70073 34.6486 7.79052 35.7961L3.39844 48.5532C3.12758 49.3399 3.90246 50.0915 4.71557 49.8288L8.91374 48.4735L11.4329 51.9975C11.9197 52.6783 13.0055 52.5314 13.277 51.7425L17.0278 40.8474C18.4506 41.33 20.0304 42.6417 21.9999 42.6417C23.9667 42.6417 25.5555 41.3278 26.9717 40.8474L30.7228 51.7425C30.9934 52.5288 32.0788 52.6802 32.5669 51.9975L35.086 48.4735L39.2842 49.8288C40.0963 50.0912 40.8726 49.3408 40.6013 48.5532L36.2095 35.796C37.306 34.6399 39.5545 34.0193 40.6222 32.2344C41.6472 30.5198 41.148 28.3983 41.562 26.8972C41.9587 25.4637 43.5 23.8545 43.5 21.8208C43.5001 19.7886 41.9565 18.1699 41.5622 16.745ZM11.9601 49.1913L10.1817 46.7037C9.91731 46.3339 9.43318 46.1796 8.99622 46.321L6.03311 47.2775L9.26791 37.8818C10.8598 40.2104 12.1619 40.4579 14.9288 40.5677L11.9601 49.1913ZM35.0038 46.321C34.5649 46.1791 34.0818 46.3353 33.8183 46.7037L32.0399 49.1914L29.0715 40.5695C31.8231 40.4643 33.1399 40.2108 34.7322 37.8821L37.9669 47.2776L35.0038 46.321ZM40.5036 24.2641C39.5199 26.0597 39.3581 26.5983 39.2708 28.7362C39.1702 31.2066 38.9842 31.5353 36.7992 32.8631C35.6645 33.5525 34.9641 34.0017 34.206 34.9836C33.2878 36.1728 32.7085 37.5407 31.7098 38.1092C30.5409 38.7643 28.4837 38.3571 26.7031 38.8168C25.9288 39.0176 25.2142 39.3849 24.5229 39.74C22.229 40.919 21.7742 40.9207 19.477 39.74C18.3923 39.1827 17.6487 38.8159 16.4808 38.6606C16.48 38.6605 16.4791 38.6605 16.4782 38.6604C14.9471 38.4557 13.3069 38.6612 12.3122 38.1214C11.517 37.6423 11.0657 36.8711 10.6046 36.161C9.45098 34.3836 9.05078 33.9871 7.20079 32.8631C6.36062 32.3525 5.56699 31.8702 5.18095 31.225C4.50333 30.0883 4.93009 28.1139 4.4497 26.3755C3.97796 24.6698 2.58263 23.201 2.58263 21.8209C2.58263 20.4432 3.97921 18.9675 4.44981 17.266C4.66568 16.4841 4.69807 15.6797 4.72921 14.902C4.82783 12.4446 5.01256 12.1084 7.20079 10.7788C9.03162 9.66631 9.44807 9.26352 10.5976 7.48922C11.1249 6.67558 11.6228 5.90702 12.2899 5.53288C13.4604 4.87727 15.5005 5.29024 17.2969 4.82503C19.0582 4.3683 20.575 3.01694 22 3.01694C22.801 3.01694 23.6376 3.44676 24.523 3.90178C26.3755 4.85347 26.937 5.01271 29.1447 5.09561C31.6822 5.19111 32.0294 5.37001 33.4025 7.48912C34.5514 9.26251 34.9671 9.6654 36.7993 10.7787C38.9816 12.1047 39.1721 12.437 39.2709 14.9022C39.3564 17.0388 39.5206 17.5832 40.5037 19.3776C40.9736 20.2351 41.4175 21.0451 41.4175 21.8209C41.4174 22.5966 40.9735 23.4066 40.5036 24.2641Z" fill="#FF1B1E" stroke="#FF1B1E" stroke-width="0.4"/>
<path d="M22 7.19824C13.6739 7.19824 6.90015 13.7581 6.90015 21.8211C6.90015 30.012 13.7706 36.4455 21.9998 36.4455C30.3074 36.4455 37.0998 29.9276 37.0998 21.8211C37.0998 13.7581 30.3261 7.19824 22 7.19824ZM22.0256 34.429C14.8936 34.4425 8.98288 28.8602 8.98288 21.8211C8.98288 14.8702 14.8224 9.21519 22 9.21519C29.1776 9.21519 35.0171 14.8702 35.0171 21.8211C35.0171 28.7755 29.1982 34.4154 22.0256 34.429Z" fill="#FF1B1E" stroke="#FF1B1E" stroke-width="0.4"/>
</svg>
