<svg width="107" height="107" viewBox="0 0 107 107" fill="none" xmlns="http://www.w3.org/2000/svg">
<path fill-rule="evenodd" clip-rule="evenodd" d="M95.6536 24.1463C96.0771 24.7892 96.2659 25.5586 96.1879 26.3246C96.1099 27.0906 95.77 27.8062 95.2256 28.3505L54.2401 69.3315C53.8208 69.7506 53.2977 70.0506 52.7243 70.2009L35.6533 74.6592C35.089 74.8064 34.496 74.8034 33.9333 74.6506C33.3705 74.4978 32.8574 74.2005 32.4451 73.7881C32.0327 73.3757 31.7354 72.8627 31.5825 72.2999C31.4297 71.7371 31.4268 71.1441 31.5739 70.5799L36.0323 53.5134C36.1656 53.0023 36.4107 52.5272 36.7501 52.1224L77.8871 11.0121C78.5141 10.3859 79.3639 10.0342 80.25 10.0342C81.1361 10.0342 81.986 10.3859 82.6129 11.0121L95.2256 23.6202C95.3814 23.7845 95.5245 23.9603 95.6536 24.1463ZM88.1324 25.9832L80.25 18.1053L42.2739 56.0814L39.4875 66.7501L50.1563 63.9637L88.1324 25.9832Z" fill="#FF1B1E"/>
<path d="M87.5661 76.5051C88.7847 66.0902 89.1738 55.595 88.7297 45.1184C88.7193 44.8715 88.7602 44.6251 88.85 44.3949C88.9398 44.1646 89.0765 43.9556 89.2514 43.7809L93.6384 39.3939C93.7582 39.2734 93.9104 39.19 94.0765 39.1538C94.2426 39.1177 94.4157 39.1302 94.5748 39.19C94.734 39.2498 94.8725 39.3543 94.9736 39.4909C95.0749 39.6275 95.1344 39.7905 95.1453 39.9601C95.9687 52.4045 95.6554 64.8979 94.209 77.2853C93.1569 86.3001 85.9165 93.3665 76.9419 94.3696C61.3615 96.0939 45.6384 96.0939 30.0581 94.3696C21.0879 93.3665 13.8431 86.3001 12.7909 77.2853C10.9457 61.4822 10.9457 45.518 12.7909 29.7149C13.8431 20.7001 21.0834 13.6337 30.0581 12.6306C41.8836 11.3245 53.7974 11.0068 65.6757 11.6809C65.8457 11.6931 66.0086 11.7538 66.1452 11.8558C66.2818 11.9577 66.3863 12.0966 66.4463 12.2561C66.5064 12.4156 66.5194 12.589 66.484 12.7557C66.4486 12.9224 66.3661 13.0755 66.2464 13.1968L61.8192 17.6194C61.6462 17.7926 61.4393 17.9283 61.2115 18.0181C60.9837 18.1078 60.7398 18.1497 60.4951 18.1411C50.5831 17.8016 40.6596 18.1815 30.8026 19.2779C27.9223 19.5967 25.2335 20.8772 23.1706 22.9126C21.1078 24.9479 19.7913 27.6193 19.4339 30.4951C17.6454 45.7796 17.6454 61.2206 19.4339 76.5051C19.7913 79.3809 21.1078 82.0522 23.1706 84.0876C25.2335 86.123 27.9223 87.4035 30.8026 87.7223C45.7603 89.3941 61.2396 89.3941 76.2018 87.7223C79.0822 87.4035 81.7709 86.123 83.8338 84.0876C85.8966 82.0522 87.2087 79.3809 87.5661 76.5051Z" fill="#FF1B1E"/>
</svg>
