<svg width="49" height="48" viewBox="0 0 49 48" fill="none" xmlns="http://www.w3.org/2000/svg">
<path d="M17.75 24C18.9926 24 20 22.9926 20 21.75C20 20.5074 18.9926 19.5 17.75 19.5C16.5074 19.5 15.5 20.5074 15.5 21.75C15.5 22.9926 16.5074 24 17.75 24Z" fill="#FF1B1E"/>
<path d="M24.5046 36.0001C20.2465 36.0001 16.6652 33.2316 15.5318 29.4535C15.5001 29.3411 15.4951 29.2228 15.5172 29.1081C15.5393 28.9934 15.5879 28.8854 15.6591 28.7928C15.7303 28.7002 15.8222 28.6255 15.9273 28.5747C16.0325 28.5239 16.1481 28.4983 16.2649 28.5001H32.7359C32.8527 28.4983 32.9683 28.5239 33.0734 28.5747C33.1786 28.6255 33.2705 28.7002 33.3417 28.7928C33.4129 28.8854 33.4615 28.9934 33.4836 29.1081C33.5057 29.2228 33.5007 29.3411 33.469 29.4535C32.3449 33.2316 28.7627 36.0001 24.5046 36.0001Z" fill="#FF1B1E"/>
<path d="M31.25 24C32.4926 24 33.5 22.9926 33.5 21.75C33.5 20.5074 32.4926 19.5 31.25 19.5C30.0074 19.5 29 20.5074 29 21.75C29 22.9926 30.0074 24 31.25 24Z" fill="#FF1B1E"/>
<path d="M26.5 24C26.5 25.1046 25.6046 26 24.5 26C23.3954 26 22.5 25.1046 22.5 24C22.5 22.8954 23.3954 22 24.5 22C25.6046 22 26.5 22.8954 26.5 24Z" stroke="#FF1B1E" stroke-width="35" stroke-miterlimit="10"/>
</svg>
