<svg width="42" height="38" viewBox="0 0 42 38" fill="none" xmlns="http://www.w3.org/2000/svg">
<path d="M0.166626 2.06875C0.170439 1.52162 0.389335 0.997953 0.776028 0.61087C1.16272 0.223787 1.68617 0.00436385 2.23329 0H39.7666C40.9083 0 41.8333 0.927083 41.8333 2.06875V35.4312C41.8295 35.9784 41.6106 36.502 41.2239 36.8891C40.8372 37.2762 40.3137 37.4956 39.7666 37.5H2.23329C1.68499 37.4994 1.15933 37.2812 0.771812 36.8933C0.384297 36.5054 0.166626 35.9796 0.166626 35.4312V2.06875ZM4.33329 4.16667V33.3333H37.6666V4.16667H4.33329ZM18.1291 11.2812L28.2937 18.0562C28.408 18.1323 28.5018 18.2355 28.5666 18.3565C28.6314 18.4775 28.6654 18.6127 28.6654 18.75C28.6654 18.8873 28.6314 19.0225 28.5666 19.1435C28.5018 19.2645 28.408 19.3677 28.2937 19.4438L18.127 26.2188C18.0017 26.3018 17.8562 26.3495 17.7059 26.3566C17.5557 26.3637 17.4064 26.33 17.2737 26.2591C17.1411 26.1882 17.0301 26.0827 16.9526 25.9538C16.875 25.8249 16.8338 25.6775 16.8333 25.5271V11.9729C16.8336 11.8222 16.8747 11.6744 16.9524 11.5452C17.03 11.416 17.1413 11.3103 17.2742 11.2393C17.4072 11.1683 17.5569 11.1347 17.7075 11.1421C17.858 11.1495 18.0037 11.1976 18.1291 11.2812Z" fill="#FF1B1E" fill-opacity="0.9"/>
</svg>
