<svg width="107" height="107" viewBox="0 0 107 107" fill="none" xmlns="http://www.w3.org/2000/svg">
<path d="M23.4062 20.0625C18.9722 20.0625 14.7197 21.8239 11.5843 24.9593C8.44893 28.0947 6.6875 32.3472 6.6875 36.7812V70.2188C6.6875 74.6528 8.44893 78.9053 11.5843 82.0407C14.7197 85.1761 18.9722 86.9375 23.4062 86.9375H56.8438C61.2778 86.9375 65.5303 85.1761 68.6657 82.0407C71.8011 78.9053 73.5625 74.6528 73.5625 70.2188V69.3694L87.1716 78.7654C88.4259 79.631 89.8929 80.1373 91.4141 80.2294C92.9353 80.3216 94.4528 79.9962 95.8024 79.2883C97.1521 78.5804 98.2825 77.5171 99.0715 76.2132C99.8605 74.9094 100.278 73.4146 100.279 71.8906V35.1227C100.278 33.5987 99.8605 32.104 99.0715 30.8001C98.2825 29.4963 97.1521 28.4329 95.8024 27.7251C94.4528 27.0172 92.9353 26.6918 91.4141 26.7839C89.8929 26.8761 88.4259 27.3824 87.1716 28.248L73.5625 37.6439V36.7812C73.5625 32.3472 71.8011 28.0947 68.6657 24.9593C65.5303 21.8239 61.2778 20.0625 56.8438 20.0625H23.4062ZM73.5625 45.7692L90.9768 33.7451C91.2278 33.5719 91.5215 33.4706 91.8259 33.4523C92.1304 33.4339 92.4341 33.4993 92.7041 33.6412C92.9741 33.7831 93.2002 33.9961 93.3578 34.2573C93.5154 34.5184 93.5985 34.8177 93.5983 35.1227V71.8906C93.5973 72.1951 93.5133 72.4935 93.3552 72.7537C93.1971 73.0139 92.971 73.226 92.7012 73.3671C92.4314 73.5082 92.1282 73.5729 91.8243 73.5543C91.5204 73.5357 91.2273 73.4345 90.9768 73.2616L73.5625 61.2441V45.7692ZM13.375 36.7812C13.375 34.1208 14.4319 31.5693 16.3131 29.6881C18.1943 27.8069 20.7458 26.75 23.4062 26.75H56.8438C59.5042 26.75 62.0557 27.8069 63.9369 29.6881C65.8181 31.5693 66.875 34.1208 66.875 36.7812V70.2188C66.875 72.8792 65.8181 75.4307 63.9369 77.3119C62.0557 79.1931 59.5042 80.25 56.8438 80.25H23.4062C20.7458 80.25 18.1943 79.1931 16.3131 77.3119C14.4319 75.4307 13.375 72.8792 13.375 70.2188V36.7812Z" fill="#FF1B1E"/>
</svg>
