<svg width="46" height="46" viewBox="0 0 46 46" fill="none" xmlns="http://www.w3.org/2000/svg">
<path d="M23 5.75008C27.5749 5.75008 31.9625 7.56749 35.1975 10.8025C38.4326 14.0375 40.25 18.4251 40.25 23.0001C40.25 27.7017 38.3716 31.9624 35.3184 35.0751C33.7144 36.7161 31.7981 38.0194 29.6825 38.9082C27.5668 39.797 25.2947 40.2532 23 40.2501C20.7347 40.2501 18.4915 39.8039 16.3987 38.937C14.3058 38.0701 12.4042 36.7995 10.8024 35.1977C9.20056 33.5959 7.92993 31.6942 7.06304 29.6014C6.19614 27.5085 5.74996 25.2654 5.74996 23.0001C5.74996 20.7348 6.19614 18.4917 7.06304 16.3988C7.92993 14.3059 9.20056 12.4043 10.8024 10.8025C12.4042 9.20068 14.3058 7.93005 16.3987 7.06316C18.4915 6.19627 20.7347 5.75008 23 5.75008ZM35.1248 40.2501C36.1802 39.5064 37.1577 38.6759 38.0573 37.7584C41.9253 33.8207 44.0897 28.5198 44.0833 23.0001C44.0833 11.3563 34.6437 1.91675 23 1.91675C11.3562 1.91675 1.91663 11.3563 1.91663 23.0001C1.91663 34.6438 11.3562 44.0834 23 44.0834H46V40.2501H35.1248ZM23 11.5001C22.4916 11.5001 22.0041 11.702 21.6447 12.0615C21.2852 12.4209 21.0833 12.9084 21.0833 13.4167C21.0833 13.9251 21.2852 14.4126 21.6447 14.772C22.0041 15.1315 22.4916 15.3334 23 15.3334C23.5083 15.3334 23.9958 15.1315 24.3552 14.772C24.7147 14.4126 24.9166 13.9251 24.9166 13.4167C24.9166 12.9084 24.7147 12.4209 24.3552 12.0615C23.9958 11.702 23.5083 11.5001 23 11.5001ZM17.25 13.4167C17.25 11.8918 17.8558 10.4292 18.9341 9.35088C20.0124 8.27255 21.475 7.66675 23 7.66675C24.525 7.66675 25.9875 8.27255 27.0658 9.35088C28.1442 10.4292 28.75 11.8918 28.75 13.4167C28.75 14.9417 28.1442 16.4043 27.0658 17.4826C25.9875 18.5609 24.525 19.1667 23 19.1667C21.475 19.1667 20.0124 18.5609 18.9341 17.4826C17.8558 16.4043 17.25 14.9417 17.25 13.4167ZM13.4166 21.0834C12.9083 21.0834 12.4208 21.2853 12.0613 21.6448C11.7019 22.0042 11.5 22.4918 11.5 23.0001C11.5 23.5084 11.7019 23.9959 12.0613 24.3554C12.4208 24.7148 12.9083 24.9167 13.4166 24.9167C13.925 24.9167 14.4125 24.7148 14.7719 24.3554C15.1314 23.9959 15.3333 23.5084 15.3333 23.0001C15.3333 22.4918 15.1314 22.0042 14.7719 21.6448C14.4125 21.2853 13.925 21.0834 13.4166 21.0834ZM7.66663 23.0001C7.66663 22.245 7.81535 21.4973 8.10432 20.7997C8.39328 20.102 8.81683 19.4682 9.35076 18.9342C9.8847 18.4003 10.5186 17.9767 11.2162 17.6878C11.9138 17.3988 12.6615 17.2501 13.4166 17.2501C14.1717 17.2501 14.9194 17.3988 15.6171 17.6878C16.3147 17.9767 16.9486 18.4003 17.4825 18.9342C18.0164 19.4682 18.44 20.102 18.7289 20.7997C19.0179 21.4973 19.1666 22.245 19.1666 23.0001C19.1666 24.5251 18.5608 25.9876 17.4825 27.0659C16.4042 28.1443 14.9416 28.7501 13.4166 28.7501C11.8916 28.7501 10.4291 28.1443 9.35076 27.0659C8.27243 25.9876 7.66663 24.5251 7.66663 23.0001ZM32.5833 21.0834C32.075 21.0834 31.5874 21.2853 31.228 21.6448C30.8686 22.0042 30.6666 22.4918 30.6666 23.0001C30.6666 23.5084 30.8686 23.9959 31.228 24.3554C31.5874 24.7148 32.075 24.9167 32.5833 24.9167C33.0916 24.9167 33.5791 24.7148 33.9386 24.3554C34.298 23.9959 34.5 23.5084 34.5 23.0001C34.5 22.4918 34.298 22.0042 33.9386 21.6448C33.5791 21.2853 33.0916 21.0834 32.5833 21.0834ZM26.8333 23.0001C26.8333 21.4751 27.4391 20.0126 28.5174 18.9342C29.5958 17.8559 31.0583 17.2501 32.5833 17.2501C34.1083 17.2501 35.5708 17.8559 36.6492 18.9342C37.7275 20.0126 38.3333 21.4751 38.3333 23.0001C38.3333 24.5251 37.7275 25.9876 36.6492 27.0659C35.5708 28.1443 34.1083 28.7501 32.5833 28.7501C31.0583 28.7501 29.5958 28.1443 28.5174 27.0659C27.4391 25.9876 26.8333 24.5251 26.8333 23.0001ZM23 30.6667C22.4916 30.6667 22.0041 30.8687 21.6447 31.2281C21.2852 31.5876 21.0833 32.0751 21.0833 32.5834C21.0833 33.0917 21.2852 33.5793 21.6447 33.9387C22.0041 34.2981 22.4916 34.5001 23 34.5001C23.5083 34.5001 23.9958 34.2981 24.3552 33.9387C24.7147 33.5793 24.9166 33.0917 24.9166 32.5834C24.9166 32.0751 24.7147 31.5876 24.3552 31.2281C23.9958 30.8687 23.5083 30.6667 23 30.6667ZM17.25 32.5834C17.25 31.0584 17.8558 29.5959 18.9341 28.5176C20.0124 27.4392 21.475 26.8334 23 26.8334C24.525 26.8334 25.9875 27.4392 27.0658 28.5176C28.1442 29.5959 28.75 31.0584 28.75 32.5834C28.75 34.1084 28.1442 35.5709 27.0658 36.6493C25.9875 37.7276 24.525 38.3334 23 38.3334C21.475 38.3334 20.0124 37.7276 18.9341 36.6493C17.8558 35.5709 17.25 34.1084 17.25 32.5834Z" fill="#FF1B1E" fill-opacity="0.8"/>
</svg>
