<svg width="1306" height="1292" viewBox="0 0 1306 1292" fill="none" xmlns="http://www.w3.org/2000/svg">
<path d="M459.305 198.955C578.697 151.277 706.107 153.949 817.63 197.181L706.87 467.595C664.61 452.562 617.135 451.793 572.186 468.461L459.305 198.955Z" fill="#D9D9D9"/>
<path d="M818.922 565.495C798.208 522.077 763.398 489.45 722.35 470.833L833.091 200.464C943.291 247.536 1036.43 334.863 1088.46 452.598L818.922 565.495Z" fill="#D9D9D9"/>
<path d="M1125.24 827.593C1168.63 715.667 1171.17 587.74 1122.95 467.974L853.477 580.843C870.648 626.178 870.011 674.163 854.831 716.832L1125.24 827.593Z" fill="#D9D9D9"/>
<path d="M820.578 732.311C801.781 773.754 768.704 808.838 724.658 829.477L837.54 1098.98C955.918 1047.06 1043.71 953.649 1090.95 843.053L820.578 732.311Z" fill="#D9D9D9"/>
<path d="M443.84 202.346C326.107 253.987 238.633 346.662 191.209 456.468L461.624 567.229C480.555 526.566 513.311 492.193 556.722 471.852L443.84 202.346Z" fill="#D9D9D9"/>
<path d="M454.939 717.872C438.528 672.652 439.695 624.956 455.223 582.642L184.854 471.9C141.095 583.457 137.995 711.093 185.398 830.768L454.939 717.872Z" fill="#D9D9D9"/>
<path d="M446.487 1100.09C336.284 1052.49 243.336 964.557 191.805 846.18L461.282 733.311C481.545 777.35 516.19 810.558 557.247 829.672L446.487 1100.09Z" fill="#D9D9D9"/>
<path d="M572.662 836.075C615.384 851.751 663.591 852.79 709.197 835.878L822.079 1105.38C702.032 1153.32 573.879 1150.36 461.92 1106.44L572.662 836.075Z" fill="#D9D9D9"/>
</svg>
